<?xml version="1.0" encoding="UTF-8"?>
<svg id="Camada_1" data-name="Camada 1" xmlns="http://www.w3.org/2000/svg" viewBox="0 0 1555.13 713.92">
  <defs>
    <style>
      .cls-1 {
        fill: #fff;
      }

      .cls-2 {
        fill: #f1d690;
      }

      .cls-3 {
        fill: #40505f;
      }

      .cls-4 {
        fill: none;
        stroke: #269443;
        stroke-miterlimit: 10;
      }

      .cls-5 {
        fill: #e7b72d;
      }

      .cls-6 {
        fill: #d1962e;
      }
    </style>
  </defs>
  <g>
    <path class="cls-2" d="M348.31,523.52l-84.62,79.31-74.72-53.71c15.52-15.76,30.54-30.81,45.04-45.2h.01c16.66-16.53,32.65-32.15,47.95-46.9l66.34,66.5Z"/>
    <polygon class="cls-1" points="379.86 555.15 297.14 626.87 263.69 602.83 348.31 523.52 379.86 555.15"/>
    <path class="cls-3" d="M505.81,379.27c-35.69,105.17-109.56,161.92-111.93,163.72-10.12-10.12-20.86-20.88-32.09-32.11l63.8-59.79s47.71-48.83,80.22-71.82Z"/>
    <path class="cls-5" d="M505.81,379.26h0c-32.51,23-80.22,71.83-80.22,71.83l-66.71-66.46c108.01-99,165.41-139.73,165.41-139.73,2.5,51.04-5.44,95.93-18.48,134.36Z"/>
    <path class="cls-5" d="M358.88,384.63c-19.57,17.94-40.81,37.79-63.67,59.66-96.27-96.23-202.99-202.73-245.16-244.11-.56-34.12,2.37-71.83,9.79-113.48l299.04,297.93Z"/>
    <path class="cls-6" d="M425.59,451.09l-63.8,59.79c-20.89-20.9-43.44-43.45-66.58-66.59,22.86-21.87,44.1-41.72,63.67-59.66l66.71,66.46Z"/>
    <path class="cls-3" d="M281.97,457.02c-15.3,14.75-31.29,30.37-47.95,46.9h-.01c-2.12-1.05-167.38-58.54-182.87-278.28l230.83,231.38Z"/>
    <line class="cls-4" x1="477.65" y1="626.87" x2="477.63" y2="626.85"/>
    <path class="cls-1" d="M409.45,150.67s-2.54-22.82-51.21-22.31c-48.68.51-87.21,0-87.21,0l-60.6,86.7,151.36,148.57s50.95-44.37,51.21-45.64c.25-1.26-40.57-40.47-31.69-84.5,8.87-44.03,58.56-51.89,82.39-28.57,0,0,14.45-52.73-54.25-54.25ZM373.53,171.21c-7.98,0-14.47-6.36-14.69-14.29l29.31,1.15c-.78,7.38-7.03,13.14-14.62,13.14Z"/>
  </g>
  <g>
    <path class="cls-1" d="M615.13,308.99l10.33-23.2c9.85,6.51,23.83,10.96,36.7,10.96s18.11-3.65,18.11-9.06c0-17.63-63.23-4.77-63.23-46.07,0-19.86,16.21-36.06,49.25-36.06,14.46,0,29.39,3.34,40.35,9.69l-9.69,23.35c-10.64-5.72-21.13-8.58-30.82-8.58-13.19,0-17.95,4.45-17.95,10.01,0,17,63.07,4.29,63.07,45.28,0,19.38-16.21,35.91-49.25,35.91-18.27,0-36.38-4.92-46.87-12.23Z"/>
    <path class="cls-1" d="M814.99,294.69v24.31h-89.29v-111.21h87.22v24.31h-56.08v18.75h49.41v23.51h-49.41v20.34h58.15Z"/>
    <path class="cls-1" d="M826.59,263.39c0-33.84,25.9-57.83,61.17-57.83,20.5,0,37.02,7.47,47.82,20.97l-20.02,18.11c-6.99-8.42-15.57-13.03-26.21-13.03-18.27,0-30.98,12.71-30.98,31.77s12.71,31.77,30.98,31.77c10.64,0,19.22-4.61,26.21-13.03l20.02,18.11c-10.8,13.5-27.33,20.97-47.82,20.97-35.27,0-61.17-23.99-61.17-57.83Z"/>
    <path class="cls-1" d="M947.33,269.43v-61.64h31.46v60.69c0,19.06,7.94,26.69,21.13,26.69s20.97-7.63,20.97-26.69v-60.69h30.98v61.64c0,33.2-19.38,51.79-52.27,51.79s-52.27-18.59-52.27-51.79Z"/>
    <path class="cls-1" d="M1121.77,289.45h-17.16v29.55h-31.46v-111.21h50.84c30.34,0,49.41,15.73,49.41,41.15,0,16.36-7.94,28.44-21.77,35.11l23.99,34.95h-33.68l-20.18-29.55ZM1122.09,232.57h-17.48v32.57h17.48c13.03,0,19.54-6.04,19.54-16.21s-6.51-16.36-19.54-16.36Z"/>
    <path class="cls-1" d="M1190.72,207.79h31.46v111.21h-31.46v-111.21Z"/>
    <path class="cls-1" d="M1268.24,232.73h-34.16v-24.94h99.61v24.94h-34v86.27h-31.46v-86.27Z"/>
    <path class="cls-1" d="M1402.33,279.12v39.88h-31.46v-40.35l-42.42-70.86h33.21l26.37,44.17,26.37-44.17h30.5l-42.58,71.33Z"/>
    <path class="cls-5" d="M654.38,380.07v24.47h49.09v24.31h-49.09v38.13h-31.46v-111.21h87.22v24.31h-55.77Z"/>
    <path class="cls-5" d="M724.91,355.76h31.46v111.21h-31.46v-111.21Z"/>
    <path class="cls-5" d="M778.77,355.76h31.46v86.27h53.06v24.94h-84.52v-111.21Z"/>
    <path class="cls-5" d="M976.09,466.97l-.32-58.94-28.6,47.98h-13.98l-28.44-46.39v57.35h-29.07v-111.21h25.9l39.08,64.19,38.13-64.19h25.9l.32,111.21h-28.92Z"/>
  </g>
</svg>