<?xml version="1.0" encoding="UTF-8"?>
<svg id="Camada_1" data-name="Camada 1" xmlns="http://www.w3.org/2000/svg" viewBox="0 0 1394.92 540.52">
  <defs>
    <style>
      .cls-1 {
        fill: #253847;
      }

      .cls-2 {
        fill: #00111f;
      }

      .cls-3 {
        fill: #40505f;
      }

      .cls-4 {
        fill: none;
        stroke: #269443;
        stroke-miterlimit: 10;
      }

      .cls-5 {
        fill: #e7b72d;
      }

      .cls-6 {
        fill: #d1962e;
      }

      .cls-7 {
        fill: #050006;
      }
    </style>
  </defs>
  <g>
    <path class="cls-1" d="M298.33,436.82l-84.62,79.31-74.72-53.71c15.52-15.76,30.54-30.81,45.04-45.2h.01c16.66-16.53,32.65-32.15,47.95-46.9l66.34,66.5Z"/>
    <polygon class="cls-2" points="329.88 468.45 247.16 540.17 213.71 516.13 298.33 436.82 329.88 468.45"/>
    <path class="cls-3" d="M455.83,292.57c-35.69,105.17-109.56,161.92-111.93,163.72-10.12-10.12-20.86-20.88-32.09-32.11l63.8-59.79s47.71-48.83,80.22-71.82Z"/>
    <path class="cls-5" d="M455.83,292.56h0c-32.51,23-80.22,71.83-80.22,71.83l-66.71-66.46c108.01-99,165.41-139.73,165.41-139.73,2.5,51.04-5.44,95.93-18.48,134.36Z"/>
    <path class="cls-5" d="M308.9,297.93c-19.57,17.94-40.81,37.79-63.67,59.66C148.96,261.36,42.24,154.86.07,113.48-.49,79.36,2.44,41.65,9.86,0l299.04,297.93Z"/>
    <path class="cls-6" d="M375.61,364.39l-63.8,59.79c-20.89-20.9-43.44-43.45-66.58-66.59,22.86-21.87,44.1-41.72,63.67-59.66l66.71,66.46Z"/>
    <path class="cls-3" d="M231.99,370.32c-15.3,14.75-31.29,30.37-47.95,46.9h-.01c-2.12-1.05-167.38-58.54-182.87-278.28l230.83,231.38Z"/>
    <line class="cls-4" x1="427.67" y1="540.17" x2="427.65" y2="540.15"/>
    <path class="cls-7" d="M359.47,63.97s-2.54-22.82-51.21-22.31c-48.68.51-87.21,0-87.21,0l-60.6,86.7,151.36,148.57s50.95-44.37,51.21-45.64c.25-1.26-40.57-40.47-31.69-84.5,8.87-44.03,58.56-51.89,82.39-28.57,0,0,14.45-52.73-54.25-54.25ZM323.55,84.51c-7.98,0-14.47-6.36-14.69-14.29l29.31,1.15c-.78,7.38-7.03,13.14-14.62,13.14Z"/>
  </g>
  <g>
    <path class="cls-7" d="M565.15,222.29l10.33-23.2c9.85,6.51,23.83,10.96,36.7,10.96s18.11-3.65,18.11-9.06c0-17.63-63.23-4.77-63.23-46.07,0-19.86,16.21-36.06,49.25-36.06,14.46,0,29.39,3.34,40.35,9.69l-9.69,23.35c-10.64-5.72-21.13-8.58-30.82-8.58-13.19,0-17.95,4.45-17.95,10.01,0,17,63.07,4.29,63.07,45.28,0,19.38-16.21,35.91-49.25,35.91-18.27,0-36.38-4.92-46.87-12.23Z"/>
    <path class="cls-7" d="M765.01,208v24.31h-89.29v-111.21h87.22v24.31h-56.08v18.75h49.41v23.51h-49.41v20.34h58.15Z"/>
    <path class="cls-7" d="M776.61,176.7c0-33.84,25.9-57.83,61.17-57.83,20.5,0,37.02,7.47,47.82,20.97l-20.02,18.11c-6.99-8.42-15.57-13.03-26.21-13.03-18.27,0-30.98,12.71-30.98,31.77s12.71,31.77,30.98,31.77c10.64,0,19.22-4.61,26.21-13.03l20.02,18.11c-10.8,13.5-27.33,20.97-47.82,20.97-35.27,0-61.17-23.99-61.17-57.83Z"/>
    <path class="cls-7" d="M897.35,182.73v-61.64h31.46v60.69c0,19.06,7.94,26.69,21.13,26.69s20.97-7.63,20.97-26.69v-60.69h30.98v61.64c0,33.2-19.38,51.79-52.27,51.79s-52.27-18.59-52.27-51.79Z"/>
    <path class="cls-7" d="M1071.79,202.75h-17.16v29.55h-31.46v-111.21h50.84c30.34,0,49.41,15.73,49.41,41.15,0,16.36-7.94,28.44-21.77,35.11l23.99,34.95h-33.68l-20.18-29.55ZM1072.1,145.88h-17.48v32.57h17.48c13.03,0,19.54-6.04,19.54-16.21s-6.51-16.36-19.54-16.36Z"/>
    <path class="cls-7" d="M1140.73,121.09h31.46v111.21h-31.46v-111.21Z"/>
    <path class="cls-7" d="M1218.26,146.03h-34.16v-24.94h99.61v24.94h-34v86.27h-31.46v-86.27Z"/>
    <path class="cls-7" d="M1352.35,192.43v39.88h-31.46v-40.35l-42.42-70.86h33.21l26.37,44.17,26.37-44.17h30.5l-42.58,71.33Z"/>
    <path class="cls-5" d="M604.39,293.37v24.47h49.09v24.31h-49.09v38.13h-31.46v-111.21h87.22v24.31h-55.77Z"/>
    <path class="cls-5" d="M674.93,269.06h31.46v111.21h-31.46v-111.21Z"/>
    <path class="cls-5" d="M728.79,269.06h31.46v86.27h53.06v24.94h-84.52v-111.21Z"/>
    <path class="cls-5" d="M926.1,380.28l-.32-58.94-28.6,47.98h-13.98l-28.44-46.39v57.35h-29.07v-111.21h25.9l39.08,64.19,38.13-64.19h25.9l.32,111.21h-28.92Z"/>
  </g>
</svg>